<svg width="334" height="166" viewBox="0 0 334 166" fill="none" xmlns="http://www.w3.org/2000/svg">
<path d="M163 51L133 1H101L147.5 77L163 51Z" fill="#16A34A" stroke="black"/>
<path d="M201 165H233L186 88L170 114L201 165Z" fill="#16A34A" stroke="black"/>
<path d="M233 1L133 165H101L201 1H233Z" fill="#16A34A" stroke="black"/>
<path d="M187.5 23L201 1H333L319.5 23H187.5Z" fill="#16A34A" stroke="black"/>
<path d="M333 1L233 165H201L301 1H333Z" fill="#16A34A" stroke="black"/>
<path d="M133 165L33 1H1L101 165H133Z" fill="#16A34A" stroke="black"/>
<path d="M101 99.5V1H133L132.5 99.5L117 125L101 99.5Z" fill="#16A34A" stroke="black"/>
<path d="M1 165V1H33V165H1Z" fill="#16A34A" stroke="black"/>
</svg>
